# xmcd CD database file
#
# Track frame offsets:
#	150
#	11678
#	36605
#	52593
#	68381
#	92270
#	110448
#	122287
#	138290
#	158368
#	177909
#	194540
#	217060
#	234516
#
# Disc length: 3190 seconds
#
# Revision: 1
# Processed by: cddbd v1.5.2PL0 Copyright (c) Steve Scherf et al.
# Submitted via: CDex 1.51
#
DISCID=ab0c740e
DTITLE=Frank Birner - time to  move on
DYEAR=1996
DGENRE=Blues
TTITLE0=time to move on
TTITLE1=she's evil
TTITLE2=footloose and fancyfree
TTITLE3=booze breath woman
TTITLE4=keepin' bad company
TTITLE5=e'nuff is e'nuff
TTITLE6=jump this morning
TTITLE7=cologne blues
TTITLE8=thangs just happen that way
TTITLE9=slenda brenda
TTITLE10=it's easy to get the blues
TTITLE11=19 years old
TTITLE12=call my brother
TTITLE13=let tommy blow
EXTD=YEAR: 1996
EXTT0=
EXTT1=
EXTT2=
EXTT3=
EXTT4=
EXTT5=
EXTT6=
EXTT7=
EXTT8=
EXTT9=
EXTT10=
EXTT11=
EXTT12=
EXTT13=
PLAYORDER=
